HIERARCHY
ROOT hip
{
  OFFSET 0 0 0
  CHANNELS 6 Xposition Yposition Zposition Zrotation Yrotation Xrotation
  JOINT abdomen
  {
    OFFSET 0 20.6881 -0.73152
    CHANNELS 3 Zrotation Xrotation Yrotation
    JOINT chest
    {
      OFFSET 0 11.7043 -0.48768
      CHANNELS 3 Zrotation Xrotation Yrotation
      JOINT neck
      {
        OFFSET 0 22.1894 -2.19456
        CHANNELS 3 Zrotation Xrotation Yrotation
        JOINT head
        {
          OFFSET -0.24384 7.07133 1.2192
          CHANNELS 3 Zrotation Xrotation Yrotation
          JOINT leftEye
          {
            OFFSET 4.14528 8.04674 8.04672
            CHANNELS 3 Zrotation Xrotation Yrotation
            End Site
            {
              OFFSET 1 0 0
            }
          }
          JOINT rightEye
          {
            OFFSET -3.6576 8.04674 8.04672
            CHANNELS 3 Zrotation Xrotation Yrotation
            End Site
            {
              OFFSET 1 0 0
            }
          }
        }
      }
      JOINT rCollar
      {
        OFFSET -2.68224 19.2634 -4.8768
        CHANNELS 3 Zrotation Xrotation Yrotation
        JOINT rShldr
        {
          OFFSET -8.77824 -1.95073 1.46304
          CHANNELS 3 Zrotation Xrotation Yrotation
          JOINT rForeArm
          {
            OFFSET -28.1742 -1.7115 0.48768
            CHANNELS 3 Zrotation Xrotation Yrotation
            JOINT rHand
            {
              OFFSET -22.5879 0.773209 7.07136
              CHANNELS 3 Zrotation Xrotation Yrotation
              JOINT rThumb1
              {
                OFFSET -1.2192 -0.487915 3.41376
                CHANNELS 3 Zrotation Xrotation Yrotation
                JOINT rThumb2
                {
                  OFFSET -3.37035 -0.52449 3.41376
                  CHANNELS 3 Zrotation Xrotation Yrotation
                  End Site
                  {
                    OFFSET -1.78271 -1.18214 1.43049
                  }
                }
              }
              JOINT rIndex1
              {
                OFFSET -7.75947 0.938293 5.60832
                CHANNELS 3 Zrotation Xrotation Yrotation
                JOINT rIndex2
                {
                  OFFSET -2.54057 -0.884171 1.56538
                  CHANNELS 3 Zrotation Xrotation Yrotation
                  End Site
                  {
                    OFFSET -1.62519 -0.234802 1.16502
                  }
                }
              }
              JOINT rMid1
              {
                OFFSET -8.24714 1.18213 3.41376
                CHANNELS 3 Zrotation Xrotation Yrotation
                JOINT rMid2
                {
                  OFFSET -3.10165 -0.590103 1.0647
                  CHANNELS 3 Zrotation Xrotation Yrotation
                  End Site
                  {
                    OFFSET -2.48547 -0.328903 0.83742
                  }
                }
              }
              JOINT rRing1
              {
                OFFSET -8.82822 0.546677 1.51678
                CHANNELS 3 Zrotation Xrotation Yrotation
                JOINT rRing2
                {
                  OFFSET -2.60934 -0.819778 -0.0198488
                  CHANNELS 3 Zrotation Xrotation Yrotation
                  End Site
                  {
                    OFFSET -2.33842 -0.294052 0.168128
                  }
                }
              }
              JOINT rPinky1
              {
                OFFSET -8.27202 -0.0477905 -0.4584
                CHANNELS 3 Zrotation Xrotation Yrotation
                JOINT rPinky2
                {
                  OFFSET -1.82734 -0.647385 -0.700984
                  CHANNELS 3 Zrotation Xrotation Yrotation
                  End Site
                  {
                    OFFSET -1.69225 -0.51767 -0.607171
                  }
                }
              }
            }
          }
        }
      }
      JOINT lCollar
      {
        OFFSET 2.68224 19.2634 -4.8768
        CHANNELS 3 Zrotation Xrotation Yrotation
        JOINT lShldr
        {
          OFFSET 8.77824 -1.95073 1.46304
          CHANNELS 3 Zrotation Xrotation Yrotation
          JOINT lForeArm
          {
            OFFSET 28.1742 -1.7115 0.48768
            CHANNELS 3 Zrotation Xrotation Yrotation
            JOINT lHand
            {
              OFFSET 22.5879 0.773209 7.07136
              CHANNELS 3 Zrotation Xrotation Yrotation
              JOINT lThumb1
              {
                OFFSET 1.2192 -0.487915 3.41376
                CHANNELS 3 Zrotation Xrotation Yrotation
                JOINT lThumb2
                {
                  OFFSET 3.37035 -0.52449 3.41376
                  CHANNELS 3 Zrotation Xrotation Yrotation
                  End Site
                  {
                    OFFSET 1.78271 -1.18214 1.43049
                  }
                }
              }
              JOINT lIndex1
              {
                OFFSET 7.75947 0.938293 5.60832
                CHANNELS 3 Zrotation Xrotation Yrotation
                JOINT lIndex2
                {
                  OFFSET 2.54057 -0.884171 1.56538
                  CHANNELS 3 Zrotation Xrotation Yrotation
                  End Site
                  {
                    OFFSET 1.62519 -0.234802 1.16502
                  }
                }
              }
              JOINT lMid1
              {
                OFFSET 8.24714 1.18213 3.41376
                CHANNELS 3 Zrotation Xrotation Yrotation
                JOINT lMid2
                {
                  OFFSET 3.10165 -0.590103 1.0647
                  CHANNELS 3 Zrotation Xrotation Yrotation
                  End Site
                  {
                    OFFSET 2.48547 -0.328903 0.83742
                  }
                }
              }
              JOINT lRing1
              {
                OFFSET 8.82822 0.546677 1.51678
                CHANNELS 3 Zrotation Xrotation Yrotation
                JOINT lRing2
                {
                  OFFSET 2.60934 -0.819778 -0.0198488
                  CHANNELS 3 Zrotation Xrotation Yrotation
                  End Site
                  {
                    OFFSET 2.33842 -0.294052 0.168128
                  }
                }
              }
              JOINT lPinky1
              {
                OFFSET 8.27202 -0.0477905 -0.4584
                CHANNELS 3 Zrotation Xrotation Yrotation
                JOINT lPinky2
                {
                  OFFSET 1.82734 -0.647385 -0.700984
                  CHANNELS 3 Zrotation Xrotation Yrotation
                  End Site
                  {
                    OFFSET 1.69225 -0.51767 -0.607171
                  }
                }
              }
            }
          }
        }
      }
    }
  }
  JOINT rButtock
  {
    OFFSET -8.77824 4.35084 1.2192
    CHANNELS 3 Zrotation Xrotation Yrotation
    JOINT rThigh
    {
      OFFSET 0 -1.70687 -2.19456
      CHANNELS 3 Zrotation Xrotation Yrotation
      JOINT rShin
      {
        OFFSET 0 -36.8199 0.73152
        CHANNELS 3 Zrotation Xrotation Yrotation
        JOINT rFoot
        {
          OFFSET 0.73152 -45.1104 -5.12064
          CHANNELS 3 Zrotation Xrotation Yrotation
          End Site
          {
            OFFSET -1.1221 -3.69964 12.103
          }
        }
      }
    }
  }
  JOINT lButtock
  {
    OFFSET 8.77824 4.35084 1.2192
    CHANNELS 3 Zrotation Xrotation Yrotation
    JOINT lThigh
    {
      OFFSET 0 -1.70687 -2.19456
      CHANNELS 3 Zrotation Xrotation Yrotation
      JOINT lShin
      {
        OFFSET 0 -36.8199 0.73152
        CHANNELS 3 Zrotation Xrotation Yrotation
        JOINT lFoot
        {
          OFFSET -0.73152 -45.1104 -5.12064
          CHANNELS 3 Zrotation Xrotation Yrotation
          End Site
          {
            OFFSET 1.1221 -3.69964 12.103
          }
        }
      }
    }
  }
}
MOTION
Frames:	9
Frame Time:	0.00833333
5.62775 85.0114 -91.3104 0.0 0.0 0.0 0.0256061 -6.19119e-06 0.000728832 0.00706471 8.63222e-06 0.00122381 3.6994e-16 0.0 7.76503e-18 1.10574e-15 3.18055e-15 2.48481e-17 -0.0 0.0 0.0 -0.0 0.0 0.0 1.97465e-16 0.0 9.93923e-17 6.32753e-15 3.85145e-16 9.93923e-16 6.8531e-14 -1.51076e-14 3.18055e-15 7.61761e-13 3.69491e-14 1.27222e-14 1.79823e-12 4.14081e-14 4.13472e-14 3.10422e-12 7.31528e-14 6.44062e-14 1.80178e-12 4.25399e-14 3.18055e-14 7.73091 5.47488 0.417314 1.7994e-12 4.13472e-14 4.45278e-14 2.90554 0.965183 0.102902 1.80999e-12 4.2043e-14 3.81667e-14 10.2786 0.731801 0.0259123 1.80119e-12 4.05521e-14 4.13472e-14 2.22167 -0.733487 -0.20892 2.00115e-16 3.88251e-19 -9.93923e-17 1.62143e-15 1.05604e-16 -7.95139e-16 6.6891e-14 2.0276e-14 -3.18055e-15 7.61675e-13 -2.04251e-14 1.90833e-14 1.79897e-12 -3.31824e-15 3.49861e-14 3.11058e-12 -6.36111e-15 7.55382e-14 1.79304e-12 -1.59028e-15 4.13472e-14 -7.73091 5.47488 -0.417314 1.79801e-12 -2.98177e-15 3.81667e-14 -2.90554 0.965183 -0.102902 1.78834e-12 -3.37934e-15 3.97569e-14 -10.2786 0.731801 -0.0259123 1.80298e-12 -1.19271e-15 3.81667e-14 -2.22167 -0.733487 0.20892 -2.03217e-16 0.0 -3.88251e-19 0.512307 -3.13364 -0.0420887 -0.00562807 0.123098 -0.0495529 -0.492807 3.00963 0.117361 2.03217e-16 0.0 3.88251e-19 -0.473318 -3.03453 0.0397102 0.00592193 -0.0564343 0.0521745 0.492498 3.09005 -0.118954
5.5873 83.6834 -93.096 0.6954 -3.5743 6.694 -0.161532 1.52949 -0.182284 0.835309 -1.15667 -0.0251622 -2.8203 -0.103059 -1.21766 3.22059 -2.12277 -1.38778 -0.0 0.0 0.0 -0.0 0.0 0.0 -5.58636e-16 -2.02003e-14 3.09991e-14 21.3849 5.84691 0.753669 -5.01393 -2.46235 7.62108 0.0026603 1.14418 0.160688 -1.13602e-10 3.30215e-10 -4.17804e-11 -1.96517e-10 5.71686e-10 -7.21378e-11 -1.13598e-10 3.30216e-10 -4.1792e-11 7.73091 5.47488 0.417314 -1.13601e-10 3.30214e-10 -4.17781e-11 2.90554 0.965183 0.102902 -1.13591e-10 3.30215e-10 -4.17825e-11 10.2786 0.731801 0.0259123 -1.136e-10 3.30214e-10 -4.17787e-11 2.22167 -0.733487 -0.20892 -6.09249e-16 -2.02028e-14 3.07969e-14 -22.7377 5.91567 -0.640601 4.20552 -1.908 -6.57173 -0.00375585 1.35951 -0.190872 -2.30706e-10 -2.28569e-10 1.70579e-10 -3.98421e-10 -3.94346e-10 2.97014e-10 -2.30715e-10 -2.28567e-10 1.70584e-10 -7.73091 5.47488 -0.417314 -2.3071e-10 -2.28569e-10 1.70578e-10 -2.90554 0.965183 -0.102902 -2.3072e-10 -2.28569e-10 1.7058e-10 -10.2786 0.731801 -0.0259123 -2.30703e-10 -2.28566e-10 1.70578e-10 -2.22167 -0.733487 0.20892 -2.03217e-16 0.0 -3.88251e-19 -0.11061 -6.3654 1.59298 -0.00169733 5.60017 0.0437741 -0.61653 0.505171 -2.44061 2.03217e-16 0.0 3.88251e-19 -0.230538 -5.8178 -0.759597 -0.000551246 4.58994 -0.0287204 0.59414 0.529927 2.38524
5.57878 83.6855 -93.0947 0.6718 -3.6176 6.6852 -0.346176 3.1448 -0.377278 1.70907 -2.37961 -0.0533751 -5.80552 -0.213065 -2.50511 6.51244 -4.35929 -2.86204 -0.0 0.0 0.0 -0.0 0.0 0.0 -1.88209e-15 -4.03508e-14 6.69935e-14 43.8215 12.0225 1.57505 -9.60892 -4.92036 15.7227 -0.00151269 2.35486 0.330933 -2.43038e-10 7.14507e-10 -9.11368e-11 -4.20452e-10 1.23697e-09 -1.57321e-10 -2.43032e-10 7.14508e-10 -9.11507e-11 7.73091 5.47488 0.417314 -2.43036e-10 7.14505e-10 -9.11354e-11 2.90554 0.965183 0.102902 -2.43026e-10 7.14504e-10 -9.11378e-11 10.2786 0.731801 0.0259123 -2.43037e-10 7.14504e-10 -9.11334e-11 2.22167 -0.733487 -0.20892 -1.9943e-15 -4.03565e-14 6.67854e-14 -46.6299 12.1674 -1.33734 8.18041 -3.8425 -13.5447 0.00213517 2.79769 -0.393154 -4.86849e-10 -4.70037e-10 3.70744e-10 -8.40688e-10 -8.10849e-10 6.45343e-10 -4.8686e-10 -4.70035e-10 3.70747e-10 -7.73091 5.47488 -0.417314 -4.86855e-10 -4.70037e-10 3.70739e-10 -2.90554 0.965183 -0.102902 -4.86865e-10 -4.70037e-10 3.70741e-10 -10.2786 0.731801 -0.0259123 -4.86846e-10 -4.70033e-10 3.70739e-10 -2.22167 -0.733487 0.20892 -2.03217e-16 0.0 -3.88251e-19 -0.563203 -9.77063 3.35145 -0.0172715 11.3878 0.144798 -0.990203 -2.12914 -5.15098 2.03217e-16 0.0 3.88251e-19 -0.0563151 -8.76113 -1.61553 0.00706498 9.50281 -0.115639 0.944421 -2.1666 5.03269
5.58334 83.6883 -93.0874 0.7138 -3.6822 6.6523 -0.506415 4.58828 -0.549877 2.4886 -3.47004 -0.0780618 -8.47402 -0.308617 -3.65303 9.35197 -6.35333 -4.18624 -0.0 0.0 0.0 -0.0 0.0 0.0 -2.07084e-15 -6.0601e-14 9.27987e-14 63.6743 17.5283 2.35883 -13.1228 -6.86542 23.0164 -0.0113017 3.43244 0.482835 -3.44404e-10 9.90563e-10 -1.25424e-10 -5.95761e-10 1.71491e-09 -2.16542e-10 -3.44398e-10 9.90564e-10 -1.2544e-10 7.73091 5.47488 0.417314 -3.44402e-10 9.9056e-10 -1.25423e-10 2.90554 0.965183 0.102902 -3.44393e-10 9.9056e-10 -1.25424e-10 10.2786 0.731801 0.0259123 -3.44404e-10 9.9056e-10 -1.25419e-10 2.22167 -0.733487 -0.20892 -2.22798e-15 -6.0609e-14 9.25894e-14 -67.7995 17.7379 -2.00702 11.3273 -5.42342 -19.7965 0.0159647 4.07834 -0.573908 -6.95717e-10 -6.857e-10 5.11666e-10 -1.20148e-09 -1.18303e-09 8.90891e-10 -6.9573e-10 -6.85699e-10 5.11669e-10 -7.73091 5.47488 -0.417314 -6.95725e-10 -6.857e-10 5.11658e-10 -2.90554 0.965183 -0.102902 -6.95736e-10 -6.857e-10 5.1166e-10 -10.2786 0.731801 -0.0259123 -6.95714e-10 -6.85696e-10 5.11658e-10 -2.22167 -0.733487 0.20892 -2.03217e-16 0.0 -3.88251e-19 -0.791094 -12.7898 4.95679 -0.0491147 16.5542 0.239738 -1.53413 -4.46321 -7.57907 2.03217e-16 0.0 3.88251e-19 0.0178668 -11.3762 -2.39341 0.0267272 13.8826 -0.195958 1.46819 -4.55073 7.41649
5.58717 83.684 -93.0787 0.7205 -3.6622 6.7296 -0.626644 5.60239 -0.664982 3.03487 -4.2292 -0.0938076 -10.3412 -0.368584 -4.45209 11.2793 -7.75541 -5.11361 -0.0 0.0 0.0 -0.0 0.0 0.0 5.77197e-16 -8.11006e-14 9.31306e-14 77.4109 21.371 2.95647 -15.2689 -8.02538 28.144 -0.0214502 4.17737 0.588144 -3.75598e-10 9.96032e-10 -1.22038e-10 -6.49505e-10 1.72447e-09 -2.10856e-10 -3.75592e-10 9.96034e-10 -1.22054e-10 7.73091 5.47488 0.417314 -3.75597e-10 9.96029e-10 -1.22038e-10 2.90554 0.965183 0.102902 -3.75587e-10 9.96029e-10 -1.22037e-10 10.2786 0.731801 0.0259123 -3.75598e-10 9.9603e-10 -1.22032e-10 2.22167 -0.733487 -0.20892 4.16804e-16 -8.11088e-14 9.29318e-14 -82.4563 21.614 -2.52924 13.3057 -6.40767 -24.1674 0.0303342 4.96538 -0.699608 -7.86399e-10 -8.36852e-10 5.04484e-10 -1.3586e-09 -1.44439e-09 8.79492e-10 -7.86413e-10 -8.3685e-10 5.04487e-10 -7.73091 5.47488 -0.417314 -7.86407e-10 -8.36852e-10 5.04474e-10 -2.90554 0.965183 -0.102902 -7.86418e-10 -8.36852e-10 5.04477e-10 -10.2786 0.731801 -0.0259123 -7.86396e-10 -8.36847e-10 5.04474e-10 -2.22167 -0.733487 0.20892 -2.03217e-16 0.0 -3.88251e-19 -0.860975 -14.8795 6.09718 -0.0821142 20.1677 0.31036 -2.03147 -6.09007 -9.2714 2.03217e-16 0.0 3.88251e-19 0.011238 -13.178 -2.94544 0.0477937 16.9298 -0.254332 1.95419 -6.19597 9.11041
5.62827 83.6826 -93.0367 0.8261 -3.6675 6.7522 -0.703273 6.02129 -0.698141 3.25793 -4.52647 -0.0967674 -11.0883 -0.37902 -4.76349 12.036 -8.34124 -5.46924 -0.0 0.0 0.0 -0.0 0.0 0.0 8.87584e-15 -1.09553e-13 5.01757e-14 82.7462 22.8915 3.23636 -16.0411 -8.42273 30.1496 -0.0260351 4.45744 0.627816 -2.93784e-10 5.16575e-10 -3.60539e-11 -5.07289e-10 8.94618e-10 -6.28108e-11 -2.93779e-10 5.16578e-10 -3.60674e-11 7.73091 5.47488 0.417314 -2.93784e-10 5.16574e-10 -3.60543e-11 2.90554 0.965183 0.102902 -2.93774e-10 5.16574e-10 -3.60524e-11 10.2786 0.731801 0.0259123 -2.93785e-10 5.16575e-10 -3.60463e-11 2.22167 -0.733487 -0.20892 8.78554e-15 -1.09558e-13 5.00107e-14 -88.1381 23.1196 -2.79104 14.0195 -6.75008 -25.8498 0.0369514 5.30722 -0.748185 -7.03329e-10 -9.49669e-10 2.24145e-10 -1.21664e-09 -1.64082e-09 3.94648e-10 -7.03342e-10 -9.49667e-10 2.24151e-10 -7.73091 5.47488 -0.417314 -7.03335e-10 -9.49669e-10 2.24137e-10 -2.90554 0.965183 -0.102902 -7.03346e-10 -9.4967e-10 2.24139e-10 -10.2786 0.731801 -0.0259123 -7.03326e-10 -9.49666e-10 2.24137e-10 -2.22167 -0.733487 0.20892 -2.03217e-16 0.0 -3.88251e-19 -0.898271 -15.6942 6.5305 -0.0975914 21.6126 0.340033 -2.25418 -6.7671 -9.90371 2.03217e-16 0.0 3.88251e-19 -0.0342386 -13.8438 -3.16172 0.0571854 18.1107 -0.27778 2.17741 -6.83863 9.81364
5.64994 83.6869 -92.9916 0.8928 -3.7277 6.6775 -0.750681 6.01479 -0.672489 3.25021 -4.49374 -0.0905804 -11.0343 -0.354179 -4.72652 11.9795 -8.34685 -5.41202 -0.0 0.0 0.0 -0.0 0.0 0.0 2.11307e-14 -1.43325e-13 -2.33355e-14 82.1254 22.7562 3.26659 -15.948 -8.37215 29.9071 -0.025266 4.40545 0.620453 -1.31953e-10 -3.04206e-10 1.07507e-10 -2.26328e-10 -5.2607e-10 1.84469e-10 -1.3195e-10 -3.04201e-10 1.07498e-10 7.73091 5.47488 0.417314 -1.31955e-10 -3.04204e-10 1.07506e-10 2.90554 0.965183 0.102902 -1.31945e-10 -3.04203e-10 1.07509e-10 10.2786 0.731801 0.0259123 -1.31953e-10 -3.04201e-10 1.07516e-10 2.22167 -0.733487 -0.20892 2.11621e-14 -1.43323e-13 -2.34504e-14 -87.4487 22.9343 -2.84686 13.9114 -6.68981 -25.6011 0.0360577 5.25941 -0.74139 -4.96545e-10 -1.03263e-09 -2.48173e-10 -8.61736e-10 -1.78659e-09 -4.22956e-10 -4.96556e-10 -1.03263e-09 -2.48161e-10 -7.73091 5.47488 -0.417314 -4.96547e-10 -1.03263e-09 -2.48176e-10 -2.90554 0.965183 -0.102902 -4.96558e-10 -1.03263e-09 -2.48174e-10 -10.2786 0.731801 -0.0259123 -4.96542e-10 -1.03263e-09 -2.48176e-10 -2.22167 -0.733487 0.20892 -2.03217e-16 0.0 -3.88251e-19 -0.955883 -15.6049 6.44411 -0.0956905 21.5083 0.338232 -2.23146 -6.77553 -9.77044 2.03217e-16 0.0 3.88251e-19 -0.0893032 -13.6996 -3.13279 0.05494 17.9584 -0.275006 2.16311 -6.77537 9.80039
5.64346 83.6891 -92.9679 0.8457 -3.8013 6.6302 -0.781346 5.82886 -0.623968 3.14643 -4.32598 -0.0810286 -10.6505 -0.315351 -4.54897 11.5844 -8.1164 -5.19115 -0.0 0.0 0.0 -0.0 0.0 0.0 3.22814e-14 -1.67057e-13 -9.68699e-14 79.1361 21.963 3.17646 -15.5145 -8.14737 28.779 -0.0223865 4.21941 0.59411 3.82575e-11 -1.09175e-09 2.2633e-10 6.88977e-11 -1.8892e-09 3.89057e-10 3.82583e-11 -1.09174e-09 2.26325e-10 7.73091 5.47488 0.417314 3.82533e-11 -1.09175e-09 2.26329e-10 2.90554 0.965183 0.102902 3.82636e-11 -1.09174e-09 2.26332e-10 10.2786 0.731801 0.0259123 3.82568e-11 -1.09174e-09 2.26339e-10 2.22167 -0.733487 -0.20892 3.24313e-14 -1.67049e-13 -9.69394e-14 -84.2178 22.0802 -2.80881 13.4802 -6.47295 -24.5951 0.0320637 5.0465 -0.711142 -2.53541e-10 -1.02048e-09 -6.91986e-10 -4.43903e-10 -1.76774e-09 -1.19172e-09 -2.53549e-10 -1.02047e-09 -6.91969e-10 -7.73091 5.47488 -0.417314 -2.53539e-10 -1.02048e-09 -6.91986e-10 -2.90554 0.965183 -0.102902 -2.5355e-10 -1.02048e-09 -6.91984e-10 -10.2786 0.731801 -0.0259123 -2.53538e-10 -1.02048e-09 -6.91985e-10 -2.22167 -0.733487 0.20892 -2.03217e-16 0.0 -3.88251e-19 -1.01545 -15.1501 6.15546 -0.0868207 20.7756 0.323583 -2.10929 -6.50614 -9.3354 2.03217e-16 0.0 3.88251e-19 -0.144004 -13.2354 -3.00588 0.0482655 17.2743 -0.261791 2.05268 -6.43175 9.49594
5.64487 83.6871 -92.954 0.8386 -3.8841 6.6509 -0.807883 5.70947 -0.588516 3.08138 -4.21817 -0.0738896 -10.4078 -0.283847 -4.43865 11.3237 -7.99391 -5.05632 -0.0 0.0 0.0 -0.0 0.0 0.0 3.72677e-14 -1.65394e-13 -1.39895e-13 77.3589 21.5092 3.09829 -15.2616 -8.01885 28.1287 -0.0206347 4.09736 0.57684 1.45209e-10 -1.4715e-09 2.381e-10 2.53908e-10 -2.54636e-09 4.0903e-10 1.45209e-10 -1.47149e-09 2.38096e-10 7.73091 5.47488 0.417314 1.45204e-10 -1.47149e-09 2.381e-10 2.90554 0.965183 0.102902 1.45214e-10 -1.47149e-09 2.38102e-10 10.2786 0.731801 0.0259123 1.45208e-10 -1.47149e-09 2.38109e-10 2.22167 -0.733487 -0.20892 3.74777e-14 -1.65382e-13 -1.39944e-13 -82.2675 21.5786 -2.79215 13.2242 -6.34511 -24.0058 0.0294547 4.89309 -0.689373 -6.18093e-11 -8.47949e-10 -8.86815e-10 -1.13177e-10 -1.47032e-09 -1.53003e-09 -6.18157e-11 -8.47945e-10 -8.86796e-10 -7.73091 5.47488 -0.417314 -6.18057e-11 -8.47948e-10 -8.86812e-10 -2.90554 0.965183 -0.102902 -6.18156e-11 -8.47952e-10 -8.8681e-10 -10.2786 0.731801 -0.0259123 -6.18055e-11 -8.4795e-10 -8.86812e-10 -2.22167 -0.733487 0.20892 -2.03217e-16 0.0 -3.88251e-19 -1.05796 -14.8683 5.98232 -0.0817866 20.3356 0.314901 -2.03678 -6.34929 -9.06325 2.03217e-16 0.0 3.88251e-19 -0.188402 -12.9407 -2.92818 0.0444903 16.8594 -0.25396 1.99166 -6.23229 9.32623
